M48
; DRILL file {KiCad 9.0.2} date 2025-07-15T19:52:05+0100
; FORMAT={-:-/ absolute / metric / decimal}
; #@! TF.CreationDate,2025-07-15T19:52:05+01:00
; #@! TF.GenerationSoftware,Kicad,Pcbnew,9.0.2
; #@! TF.FileFunction,Plated,1,2,PTH
FMAT,2
METRIC
; #@! TA.AperFunction,Plated,PTH,ViaDrill
T1C0.400
; #@! TA.AperFunction,Plated,PTH,ComponentDrill
T2C0.800
%
G90
G05
T1
X136.4Y-72.6
X137.75Y-83.2
X137.8Y-81.55
X138.45Y-88.2
X138.95Y-82.4
X139.387Y-77.444
X139.4Y-73.9
X140.075Y-81.525
X140.2Y-72.75
X140.85Y-77.4
X141.402Y-73.998
X142.116Y-72.334
X142.249Y-80.649
X143.2Y-71.1
X146.1Y-74.95
X146.85Y-87.0
X146.95Y-73.8
X147.75Y-85.05
T2
X134.275Y-72.345
X134.275Y-74.885
X134.275Y-77.425
X134.275Y-79.965
X134.275Y-82.505
X134.275Y-85.045
X134.275Y-87.585
X149.515Y-72.345
X149.515Y-74.885
X149.515Y-77.425
X149.515Y-79.965
X149.515Y-82.505
X149.515Y-85.045
X149.515Y-87.585
M30
