%TF.GenerationSoftware,KiCad,Pcbnew,9.0.2*%
%TF.CreationDate,2025-07-15T19:52:00+01:00*%
%TF.ProjectId,esp_bmi323,6573705f-626d-4693-9332-332e6b696361,rev?*%
%TF.SameCoordinates,Original*%
%TF.FileFunction,Legend,Top*%
%TF.FilePolarity,Positive*%
%FSLAX46Y46*%
G04 Gerber Fmt 4.6, Leading zero omitted, Abs format (unit mm)*
G04 Created by KiCad (PCBNEW 9.0.2) date 2025-07-15 19:52:00*
%MOMM*%
%LPD*%
G01*
G04 APERTURE LIST*
%ADD10C,0.150000*%
%ADD11C,0.120000*%
%ADD12C,0.152400*%
%ADD13C,0.000000*%
G04 APERTURE END LIST*
D10*
X147759524Y-71304819D02*
X147759524Y-70304819D01*
X147759524Y-70304819D02*
X147997619Y-70304819D01*
X147997619Y-70304819D02*
X148140476Y-70352438D01*
X148140476Y-70352438D02*
X148235714Y-70447676D01*
X148235714Y-70447676D02*
X148283333Y-70542914D01*
X148283333Y-70542914D02*
X148330952Y-70733390D01*
X148330952Y-70733390D02*
X148330952Y-70876247D01*
X148330952Y-70876247D02*
X148283333Y-71066723D01*
X148283333Y-71066723D02*
X148235714Y-71161961D01*
X148235714Y-71161961D02*
X148140476Y-71257200D01*
X148140476Y-71257200D02*
X147997619Y-71304819D01*
X147997619Y-71304819D02*
X147759524Y-71304819D01*
X149283333Y-71304819D02*
X148711905Y-71304819D01*
X148997619Y-71304819D02*
X148997619Y-70304819D01*
X148997619Y-70304819D02*
X148902381Y-70447676D01*
X148902381Y-70447676D02*
X148807143Y-70542914D01*
X148807143Y-70542914D02*
X148711905Y-70590533D01*
X149902381Y-70304819D02*
X149997619Y-70304819D01*
X149997619Y-70304819D02*
X150092857Y-70352438D01*
X150092857Y-70352438D02*
X150140476Y-70400057D01*
X150140476Y-70400057D02*
X150188095Y-70495295D01*
X150188095Y-70495295D02*
X150235714Y-70685771D01*
X150235714Y-70685771D02*
X150235714Y-70923866D01*
X150235714Y-70923866D02*
X150188095Y-71114342D01*
X150188095Y-71114342D02*
X150140476Y-71209580D01*
X150140476Y-71209580D02*
X150092857Y-71257200D01*
X150092857Y-71257200D02*
X149997619Y-71304819D01*
X149997619Y-71304819D02*
X149902381Y-71304819D01*
X149902381Y-71304819D02*
X149807143Y-71257200D01*
X149807143Y-71257200D02*
X149759524Y-71209580D01*
X149759524Y-71209580D02*
X149711905Y-71114342D01*
X149711905Y-71114342D02*
X149664286Y-70923866D01*
X149664286Y-70923866D02*
X149664286Y-70685771D01*
X149664286Y-70685771D02*
X149711905Y-70495295D01*
X149711905Y-70495295D02*
X149759524Y-70400057D01*
X149759524Y-70400057D02*
X149807143Y-70352438D01*
X149807143Y-70352438D02*
X149902381Y-70304819D01*
X151188095Y-71304819D02*
X150616667Y-71304819D01*
X150902381Y-71304819D02*
X150902381Y-70304819D01*
X150902381Y-70304819D02*
X150807143Y-70447676D01*
X150807143Y-70447676D02*
X150711905Y-70542914D01*
X150711905Y-70542914D02*
X150616667Y-70590533D01*
X141930952Y-71654819D02*
X141597619Y-71178628D01*
X141359524Y-71654819D02*
X141359524Y-70654819D01*
X141359524Y-70654819D02*
X141740476Y-70654819D01*
X141740476Y-70654819D02*
X141835714Y-70702438D01*
X141835714Y-70702438D02*
X141883333Y-70750057D01*
X141883333Y-70750057D02*
X141930952Y-70845295D01*
X141930952Y-70845295D02*
X141930952Y-70988152D01*
X141930952Y-70988152D02*
X141883333Y-71083390D01*
X141883333Y-71083390D02*
X141835714Y-71131009D01*
X141835714Y-71131009D02*
X141740476Y-71178628D01*
X141740476Y-71178628D02*
X141359524Y-71178628D01*
X142883333Y-71654819D02*
X142311905Y-71654819D01*
X142597619Y-71654819D02*
X142597619Y-70654819D01*
X142597619Y-70654819D02*
X142502381Y-70797676D01*
X142502381Y-70797676D02*
X142407143Y-70892914D01*
X142407143Y-70892914D02*
X142311905Y-70940533D01*
X143502381Y-70654819D02*
X143597619Y-70654819D01*
X143597619Y-70654819D02*
X143692857Y-70702438D01*
X143692857Y-70702438D02*
X143740476Y-70750057D01*
X143740476Y-70750057D02*
X143788095Y-70845295D01*
X143788095Y-70845295D02*
X143835714Y-71035771D01*
X143835714Y-71035771D02*
X143835714Y-71273866D01*
X143835714Y-71273866D02*
X143788095Y-71464342D01*
X143788095Y-71464342D02*
X143740476Y-71559580D01*
X143740476Y-71559580D02*
X143692857Y-71607200D01*
X143692857Y-71607200D02*
X143597619Y-71654819D01*
X143597619Y-71654819D02*
X143502381Y-71654819D01*
X143502381Y-71654819D02*
X143407143Y-71607200D01*
X143407143Y-71607200D02*
X143359524Y-71559580D01*
X143359524Y-71559580D02*
X143311905Y-71464342D01*
X143311905Y-71464342D02*
X143264286Y-71273866D01*
X143264286Y-71273866D02*
X143264286Y-71035771D01*
X143264286Y-71035771D02*
X143311905Y-70845295D01*
X143311905Y-70845295D02*
X143359524Y-70750057D01*
X143359524Y-70750057D02*
X143407143Y-70702438D01*
X143407143Y-70702438D02*
X143502381Y-70654819D01*
X144788095Y-71654819D02*
X144216667Y-71654819D01*
X144502381Y-71654819D02*
X144502381Y-70654819D01*
X144502381Y-70654819D02*
X144407143Y-70797676D01*
X144407143Y-70797676D02*
X144311905Y-70892914D01*
X144311905Y-70892914D02*
X144216667Y-70940533D01*
X146804819Y-83269047D02*
X146328628Y-83602380D01*
X146804819Y-83840475D02*
X145804819Y-83840475D01*
X145804819Y-83840475D02*
X145804819Y-83459523D01*
X145804819Y-83459523D02*
X145852438Y-83364285D01*
X145852438Y-83364285D02*
X145900057Y-83316666D01*
X145900057Y-83316666D02*
X145995295Y-83269047D01*
X145995295Y-83269047D02*
X146138152Y-83269047D01*
X146138152Y-83269047D02*
X146233390Y-83316666D01*
X146233390Y-83316666D02*
X146281009Y-83364285D01*
X146281009Y-83364285D02*
X146328628Y-83459523D01*
X146328628Y-83459523D02*
X146328628Y-83840475D01*
X145900057Y-82888094D02*
X145852438Y-82840475D01*
X145852438Y-82840475D02*
X145804819Y-82745237D01*
X145804819Y-82745237D02*
X145804819Y-82507142D01*
X145804819Y-82507142D02*
X145852438Y-82411904D01*
X145852438Y-82411904D02*
X145900057Y-82364285D01*
X145900057Y-82364285D02*
X145995295Y-82316666D01*
X145995295Y-82316666D02*
X146090533Y-82316666D01*
X146090533Y-82316666D02*
X146233390Y-82364285D01*
X146233390Y-82364285D02*
X146804819Y-82935713D01*
X146804819Y-82935713D02*
X146804819Y-82316666D01*
X145804819Y-81697618D02*
X145804819Y-81602380D01*
X145804819Y-81602380D02*
X145852438Y-81507142D01*
X145852438Y-81507142D02*
X145900057Y-81459523D01*
X145900057Y-81459523D02*
X145995295Y-81411904D01*
X145995295Y-81411904D02*
X146185771Y-81364285D01*
X146185771Y-81364285D02*
X146423866Y-81364285D01*
X146423866Y-81364285D02*
X146614342Y-81411904D01*
X146614342Y-81411904D02*
X146709580Y-81459523D01*
X146709580Y-81459523D02*
X146757200Y-81507142D01*
X146757200Y-81507142D02*
X146804819Y-81602380D01*
X146804819Y-81602380D02*
X146804819Y-81697618D01*
X146804819Y-81697618D02*
X146757200Y-81792856D01*
X146757200Y-81792856D02*
X146709580Y-81840475D01*
X146709580Y-81840475D02*
X146614342Y-81888094D01*
X146614342Y-81888094D02*
X146423866Y-81935713D01*
X146423866Y-81935713D02*
X146185771Y-81935713D01*
X146185771Y-81935713D02*
X145995295Y-81888094D01*
X145995295Y-81888094D02*
X145900057Y-81840475D01*
X145900057Y-81840475D02*
X145852438Y-81792856D01*
X145852438Y-81792856D02*
X145804819Y-81697618D01*
X145900057Y-80983332D02*
X145852438Y-80935713D01*
X145852438Y-80935713D02*
X145804819Y-80840475D01*
X145804819Y-80840475D02*
X145804819Y-80602380D01*
X145804819Y-80602380D02*
X145852438Y-80507142D01*
X145852438Y-80507142D02*
X145900057Y-80459523D01*
X145900057Y-80459523D02*
X145995295Y-80411904D01*
X145995295Y-80411904D02*
X146090533Y-80411904D01*
X146090533Y-80411904D02*
X146233390Y-80459523D01*
X146233390Y-80459523D02*
X146804819Y-81030951D01*
X146804819Y-81030951D02*
X146804819Y-80411904D01*
X136809580Y-74719047D02*
X136857200Y-74766666D01*
X136857200Y-74766666D02*
X136904819Y-74909523D01*
X136904819Y-74909523D02*
X136904819Y-75004761D01*
X136904819Y-75004761D02*
X136857200Y-75147618D01*
X136857200Y-75147618D02*
X136761961Y-75242856D01*
X136761961Y-75242856D02*
X136666723Y-75290475D01*
X136666723Y-75290475D02*
X136476247Y-75338094D01*
X136476247Y-75338094D02*
X136333390Y-75338094D01*
X136333390Y-75338094D02*
X136142914Y-75290475D01*
X136142914Y-75290475D02*
X136047676Y-75242856D01*
X136047676Y-75242856D02*
X135952438Y-75147618D01*
X135952438Y-75147618D02*
X135904819Y-75004761D01*
X135904819Y-75004761D02*
X135904819Y-74909523D01*
X135904819Y-74909523D02*
X135952438Y-74766666D01*
X135952438Y-74766666D02*
X136000057Y-74719047D01*
X136238152Y-73861904D02*
X136904819Y-73861904D01*
X135857200Y-74099999D02*
X136571485Y-74338094D01*
X136571485Y-74338094D02*
X136571485Y-73719047D01*
X135904819Y-73147618D02*
X135904819Y-73052380D01*
X135904819Y-73052380D02*
X135952438Y-72957142D01*
X135952438Y-72957142D02*
X136000057Y-72909523D01*
X136000057Y-72909523D02*
X136095295Y-72861904D01*
X136095295Y-72861904D02*
X136285771Y-72814285D01*
X136285771Y-72814285D02*
X136523866Y-72814285D01*
X136523866Y-72814285D02*
X136714342Y-72861904D01*
X136714342Y-72861904D02*
X136809580Y-72909523D01*
X136809580Y-72909523D02*
X136857200Y-72957142D01*
X136857200Y-72957142D02*
X136904819Y-73052380D01*
X136904819Y-73052380D02*
X136904819Y-73147618D01*
X136904819Y-73147618D02*
X136857200Y-73242856D01*
X136857200Y-73242856D02*
X136809580Y-73290475D01*
X136809580Y-73290475D02*
X136714342Y-73338094D01*
X136714342Y-73338094D02*
X136523866Y-73385713D01*
X136523866Y-73385713D02*
X136285771Y-73385713D01*
X136285771Y-73385713D02*
X136095295Y-73338094D01*
X136095295Y-73338094D02*
X136000057Y-73290475D01*
X136000057Y-73290475D02*
X135952438Y-73242856D01*
X135952438Y-73242856D02*
X135904819Y-73147618D01*
X136904819Y-71861904D02*
X136904819Y-72433332D01*
X136904819Y-72147618D02*
X135904819Y-72147618D01*
X135904819Y-72147618D02*
X136047676Y-72242856D01*
X136047676Y-72242856D02*
X136142914Y-72338094D01*
X136142914Y-72338094D02*
X136190533Y-72433332D01*
X134980952Y-88754819D02*
X134647619Y-88278628D01*
X134409524Y-88754819D02*
X134409524Y-87754819D01*
X134409524Y-87754819D02*
X134790476Y-87754819D01*
X134790476Y-87754819D02*
X134885714Y-87802438D01*
X134885714Y-87802438D02*
X134933333Y-87850057D01*
X134933333Y-87850057D02*
X134980952Y-87945295D01*
X134980952Y-87945295D02*
X134980952Y-88088152D01*
X134980952Y-88088152D02*
X134933333Y-88183390D01*
X134933333Y-88183390D02*
X134885714Y-88231009D01*
X134885714Y-88231009D02*
X134790476Y-88278628D01*
X134790476Y-88278628D02*
X134409524Y-88278628D01*
X135838095Y-88088152D02*
X135838095Y-88754819D01*
X135600000Y-87707200D02*
X135361905Y-88421485D01*
X135361905Y-88421485D02*
X135980952Y-88421485D01*
X136552381Y-87754819D02*
X136647619Y-87754819D01*
X136647619Y-87754819D02*
X136742857Y-87802438D01*
X136742857Y-87802438D02*
X136790476Y-87850057D01*
X136790476Y-87850057D02*
X136838095Y-87945295D01*
X136838095Y-87945295D02*
X136885714Y-88135771D01*
X136885714Y-88135771D02*
X136885714Y-88373866D01*
X136885714Y-88373866D02*
X136838095Y-88564342D01*
X136838095Y-88564342D02*
X136790476Y-88659580D01*
X136790476Y-88659580D02*
X136742857Y-88707200D01*
X136742857Y-88707200D02*
X136647619Y-88754819D01*
X136647619Y-88754819D02*
X136552381Y-88754819D01*
X136552381Y-88754819D02*
X136457143Y-88707200D01*
X136457143Y-88707200D02*
X136409524Y-88659580D01*
X136409524Y-88659580D02*
X136361905Y-88564342D01*
X136361905Y-88564342D02*
X136314286Y-88373866D01*
X136314286Y-88373866D02*
X136314286Y-88135771D01*
X136314286Y-88135771D02*
X136361905Y-87945295D01*
X136361905Y-87945295D02*
X136409524Y-87850057D01*
X136409524Y-87850057D02*
X136457143Y-87802438D01*
X136457143Y-87802438D02*
X136552381Y-87754819D01*
X137266667Y-87850057D02*
X137314286Y-87802438D01*
X137314286Y-87802438D02*
X137409524Y-87754819D01*
X137409524Y-87754819D02*
X137647619Y-87754819D01*
X137647619Y-87754819D02*
X137742857Y-87802438D01*
X137742857Y-87802438D02*
X137790476Y-87850057D01*
X137790476Y-87850057D02*
X137838095Y-87945295D01*
X137838095Y-87945295D02*
X137838095Y-88040533D01*
X137838095Y-88040533D02*
X137790476Y-88183390D01*
X137790476Y-88183390D02*
X137219048Y-88754819D01*
X137219048Y-88754819D02*
X137838095Y-88754819D01*
X139354819Y-77319047D02*
X138878628Y-77652380D01*
X139354819Y-77890475D02*
X138354819Y-77890475D01*
X138354819Y-77890475D02*
X138354819Y-77509523D01*
X138354819Y-77509523D02*
X138402438Y-77414285D01*
X138402438Y-77414285D02*
X138450057Y-77366666D01*
X138450057Y-77366666D02*
X138545295Y-77319047D01*
X138545295Y-77319047D02*
X138688152Y-77319047D01*
X138688152Y-77319047D02*
X138783390Y-77366666D01*
X138783390Y-77366666D02*
X138831009Y-77414285D01*
X138831009Y-77414285D02*
X138878628Y-77509523D01*
X138878628Y-77509523D02*
X138878628Y-77890475D01*
X138688152Y-76461904D02*
X139354819Y-76461904D01*
X138307200Y-76699999D02*
X139021485Y-76938094D01*
X139021485Y-76938094D02*
X139021485Y-76319047D01*
X138354819Y-75747618D02*
X138354819Y-75652380D01*
X138354819Y-75652380D02*
X138402438Y-75557142D01*
X138402438Y-75557142D02*
X138450057Y-75509523D01*
X138450057Y-75509523D02*
X138545295Y-75461904D01*
X138545295Y-75461904D02*
X138735771Y-75414285D01*
X138735771Y-75414285D02*
X138973866Y-75414285D01*
X138973866Y-75414285D02*
X139164342Y-75461904D01*
X139164342Y-75461904D02*
X139259580Y-75509523D01*
X139259580Y-75509523D02*
X139307200Y-75557142D01*
X139307200Y-75557142D02*
X139354819Y-75652380D01*
X139354819Y-75652380D02*
X139354819Y-75747618D01*
X139354819Y-75747618D02*
X139307200Y-75842856D01*
X139307200Y-75842856D02*
X139259580Y-75890475D01*
X139259580Y-75890475D02*
X139164342Y-75938094D01*
X139164342Y-75938094D02*
X138973866Y-75985713D01*
X138973866Y-75985713D02*
X138735771Y-75985713D01*
X138735771Y-75985713D02*
X138545295Y-75938094D01*
X138545295Y-75938094D02*
X138450057Y-75890475D01*
X138450057Y-75890475D02*
X138402438Y-75842856D01*
X138402438Y-75842856D02*
X138354819Y-75747618D01*
X138354819Y-75080951D02*
X138354819Y-74461904D01*
X138354819Y-74461904D02*
X138735771Y-74795237D01*
X138735771Y-74795237D02*
X138735771Y-74652380D01*
X138735771Y-74652380D02*
X138783390Y-74557142D01*
X138783390Y-74557142D02*
X138831009Y-74509523D01*
X138831009Y-74509523D02*
X138926247Y-74461904D01*
X138926247Y-74461904D02*
X139164342Y-74461904D01*
X139164342Y-74461904D02*
X139259580Y-74509523D01*
X139259580Y-74509523D02*
X139307200Y-74557142D01*
X139307200Y-74557142D02*
X139354819Y-74652380D01*
X139354819Y-74652380D02*
X139354819Y-74938094D01*
X139354819Y-74938094D02*
X139307200Y-75033332D01*
X139307200Y-75033332D02*
X139259580Y-75080951D01*
X139180952Y-76554819D02*
X138847619Y-76078628D01*
X138609524Y-76554819D02*
X138609524Y-75554819D01*
X138609524Y-75554819D02*
X138990476Y-75554819D01*
X138990476Y-75554819D02*
X139085714Y-75602438D01*
X139085714Y-75602438D02*
X139133333Y-75650057D01*
X139133333Y-75650057D02*
X139180952Y-75745295D01*
X139180952Y-75745295D02*
X139180952Y-75888152D01*
X139180952Y-75888152D02*
X139133333Y-75983390D01*
X139133333Y-75983390D02*
X139085714Y-76031009D01*
X139085714Y-76031009D02*
X138990476Y-76078628D01*
X138990476Y-76078628D02*
X138609524Y-76078628D01*
X139561905Y-75650057D02*
X139609524Y-75602438D01*
X139609524Y-75602438D02*
X139704762Y-75554819D01*
X139704762Y-75554819D02*
X139942857Y-75554819D01*
X139942857Y-75554819D02*
X140038095Y-75602438D01*
X140038095Y-75602438D02*
X140085714Y-75650057D01*
X140085714Y-75650057D02*
X140133333Y-75745295D01*
X140133333Y-75745295D02*
X140133333Y-75840533D01*
X140133333Y-75840533D02*
X140085714Y-75983390D01*
X140085714Y-75983390D02*
X139514286Y-76554819D01*
X139514286Y-76554819D02*
X140133333Y-76554819D01*
X140752381Y-75554819D02*
X140847619Y-75554819D01*
X140847619Y-75554819D02*
X140942857Y-75602438D01*
X140942857Y-75602438D02*
X140990476Y-75650057D01*
X140990476Y-75650057D02*
X141038095Y-75745295D01*
X141038095Y-75745295D02*
X141085714Y-75935771D01*
X141085714Y-75935771D02*
X141085714Y-76173866D01*
X141085714Y-76173866D02*
X141038095Y-76364342D01*
X141038095Y-76364342D02*
X140990476Y-76459580D01*
X140990476Y-76459580D02*
X140942857Y-76507200D01*
X140942857Y-76507200D02*
X140847619Y-76554819D01*
X140847619Y-76554819D02*
X140752381Y-76554819D01*
X140752381Y-76554819D02*
X140657143Y-76507200D01*
X140657143Y-76507200D02*
X140609524Y-76459580D01*
X140609524Y-76459580D02*
X140561905Y-76364342D01*
X140561905Y-76364342D02*
X140514286Y-76173866D01*
X140514286Y-76173866D02*
X140514286Y-75935771D01*
X140514286Y-75935771D02*
X140561905Y-75745295D01*
X140561905Y-75745295D02*
X140609524Y-75650057D01*
X140609524Y-75650057D02*
X140657143Y-75602438D01*
X140657143Y-75602438D02*
X140752381Y-75554819D01*
X141419048Y-75554819D02*
X142038095Y-75554819D01*
X142038095Y-75554819D02*
X141704762Y-75935771D01*
X141704762Y-75935771D02*
X141847619Y-75935771D01*
X141847619Y-75935771D02*
X141942857Y-75983390D01*
X141942857Y-75983390D02*
X141990476Y-76031009D01*
X141990476Y-76031009D02*
X142038095Y-76126247D01*
X142038095Y-76126247D02*
X142038095Y-76364342D01*
X142038095Y-76364342D02*
X141990476Y-76459580D01*
X141990476Y-76459580D02*
X141942857Y-76507200D01*
X141942857Y-76507200D02*
X141847619Y-76554819D01*
X141847619Y-76554819D02*
X141561905Y-76554819D01*
X141561905Y-76554819D02*
X141466667Y-76507200D01*
X141466667Y-76507200D02*
X141419048Y-76459580D01*
X143404818Y-74561904D02*
X144214341Y-74561904D01*
X144214341Y-74561904D02*
X144309579Y-74514285D01*
X144309579Y-74514285D02*
X144357199Y-74466666D01*
X144357199Y-74466666D02*
X144404818Y-74371428D01*
X144404818Y-74371428D02*
X144404818Y-74180952D01*
X144404818Y-74180952D02*
X144357199Y-74085714D01*
X144357199Y-74085714D02*
X144309579Y-74038095D01*
X144309579Y-74038095D02*
X144214341Y-73990476D01*
X144214341Y-73990476D02*
X143404818Y-73990476D01*
X143500056Y-73561904D02*
X143452437Y-73514285D01*
X143452437Y-73514285D02*
X143404818Y-73419047D01*
X143404818Y-73419047D02*
X143404818Y-73180952D01*
X143404818Y-73180952D02*
X143452437Y-73085714D01*
X143452437Y-73085714D02*
X143500056Y-73038095D01*
X143500056Y-73038095D02*
X143595294Y-72990476D01*
X143595294Y-72990476D02*
X143690532Y-72990476D01*
X143690532Y-72990476D02*
X143833389Y-73038095D01*
X143833389Y-73038095D02*
X144404818Y-73609523D01*
X144404818Y-73609523D02*
X144404818Y-72990476D01*
X142404818Y-75831999D02*
X142642913Y-75831999D01*
X142547675Y-76070094D02*
X142642913Y-75831999D01*
X142642913Y-75831999D02*
X142547675Y-75593904D01*
X142833389Y-75974856D02*
X142642913Y-75831999D01*
X142642913Y-75831999D02*
X142833389Y-75689142D01*
X142404818Y-75831999D02*
X142642913Y-75831999D01*
X142547675Y-76070094D02*
X142642913Y-75831999D01*
X142642913Y-75831999D02*
X142547675Y-75593904D01*
X142833389Y-75974856D02*
X142642913Y-75831999D01*
X142642913Y-75831999D02*
X142833389Y-75689142D01*
X147959580Y-89469047D02*
X148007200Y-89516666D01*
X148007200Y-89516666D02*
X148054819Y-89659523D01*
X148054819Y-89659523D02*
X148054819Y-89754761D01*
X148054819Y-89754761D02*
X148007200Y-89897618D01*
X148007200Y-89897618D02*
X147911961Y-89992856D01*
X147911961Y-89992856D02*
X147816723Y-90040475D01*
X147816723Y-90040475D02*
X147626247Y-90088094D01*
X147626247Y-90088094D02*
X147483390Y-90088094D01*
X147483390Y-90088094D02*
X147292914Y-90040475D01*
X147292914Y-90040475D02*
X147197676Y-89992856D01*
X147197676Y-89992856D02*
X147102438Y-89897618D01*
X147102438Y-89897618D02*
X147054819Y-89754761D01*
X147054819Y-89754761D02*
X147054819Y-89659523D01*
X147054819Y-89659523D02*
X147102438Y-89516666D01*
X147102438Y-89516666D02*
X147150057Y-89469047D01*
X147054819Y-89135713D02*
X147054819Y-88516666D01*
X147054819Y-88516666D02*
X147435771Y-88849999D01*
X147435771Y-88849999D02*
X147435771Y-88707142D01*
X147435771Y-88707142D02*
X147483390Y-88611904D01*
X147483390Y-88611904D02*
X147531009Y-88564285D01*
X147531009Y-88564285D02*
X147626247Y-88516666D01*
X147626247Y-88516666D02*
X147864342Y-88516666D01*
X147864342Y-88516666D02*
X147959580Y-88564285D01*
X147959580Y-88564285D02*
X148007200Y-88611904D01*
X148007200Y-88611904D02*
X148054819Y-88707142D01*
X148054819Y-88707142D02*
X148054819Y-88992856D01*
X148054819Y-88992856D02*
X148007200Y-89088094D01*
X148007200Y-89088094D02*
X147959580Y-89135713D01*
X147054819Y-87897618D02*
X147054819Y-87802380D01*
X147054819Y-87802380D02*
X147102438Y-87707142D01*
X147102438Y-87707142D02*
X147150057Y-87659523D01*
X147150057Y-87659523D02*
X147245295Y-87611904D01*
X147245295Y-87611904D02*
X147435771Y-87564285D01*
X147435771Y-87564285D02*
X147673866Y-87564285D01*
X147673866Y-87564285D02*
X147864342Y-87611904D01*
X147864342Y-87611904D02*
X147959580Y-87659523D01*
X147959580Y-87659523D02*
X148007200Y-87707142D01*
X148007200Y-87707142D02*
X148054819Y-87802380D01*
X148054819Y-87802380D02*
X148054819Y-87897618D01*
X148054819Y-87897618D02*
X148007200Y-87992856D01*
X148007200Y-87992856D02*
X147959580Y-88040475D01*
X147959580Y-88040475D02*
X147864342Y-88088094D01*
X147864342Y-88088094D02*
X147673866Y-88135713D01*
X147673866Y-88135713D02*
X147435771Y-88135713D01*
X147435771Y-88135713D02*
X147245295Y-88088094D01*
X147245295Y-88088094D02*
X147150057Y-88040475D01*
X147150057Y-88040475D02*
X147102438Y-87992856D01*
X147102438Y-87992856D02*
X147054819Y-87897618D01*
X147150057Y-87183332D02*
X147102438Y-87135713D01*
X147102438Y-87135713D02*
X147054819Y-87040475D01*
X147054819Y-87040475D02*
X147054819Y-86802380D01*
X147054819Y-86802380D02*
X147102438Y-86707142D01*
X147102438Y-86707142D02*
X147150057Y-86659523D01*
X147150057Y-86659523D02*
X147245295Y-86611904D01*
X147245295Y-86611904D02*
X147340533Y-86611904D01*
X147340533Y-86611904D02*
X147483390Y-86659523D01*
X147483390Y-86659523D02*
X148054819Y-87230951D01*
X148054819Y-87230951D02*
X148054819Y-86611904D01*
X148459580Y-75119047D02*
X148507200Y-75166666D01*
X148507200Y-75166666D02*
X148554819Y-75309523D01*
X148554819Y-75309523D02*
X148554819Y-75404761D01*
X148554819Y-75404761D02*
X148507200Y-75547618D01*
X148507200Y-75547618D02*
X148411961Y-75642856D01*
X148411961Y-75642856D02*
X148316723Y-75690475D01*
X148316723Y-75690475D02*
X148126247Y-75738094D01*
X148126247Y-75738094D02*
X147983390Y-75738094D01*
X147983390Y-75738094D02*
X147792914Y-75690475D01*
X147792914Y-75690475D02*
X147697676Y-75642856D01*
X147697676Y-75642856D02*
X147602438Y-75547618D01*
X147602438Y-75547618D02*
X147554819Y-75404761D01*
X147554819Y-75404761D02*
X147554819Y-75309523D01*
X147554819Y-75309523D02*
X147602438Y-75166666D01*
X147602438Y-75166666D02*
X147650057Y-75119047D01*
X147650057Y-74738094D02*
X147602438Y-74690475D01*
X147602438Y-74690475D02*
X147554819Y-74595237D01*
X147554819Y-74595237D02*
X147554819Y-74357142D01*
X147554819Y-74357142D02*
X147602438Y-74261904D01*
X147602438Y-74261904D02*
X147650057Y-74214285D01*
X147650057Y-74214285D02*
X147745295Y-74166666D01*
X147745295Y-74166666D02*
X147840533Y-74166666D01*
X147840533Y-74166666D02*
X147983390Y-74214285D01*
X147983390Y-74214285D02*
X148554819Y-74785713D01*
X148554819Y-74785713D02*
X148554819Y-74166666D01*
X147554819Y-73547618D02*
X147554819Y-73452380D01*
X147554819Y-73452380D02*
X147602438Y-73357142D01*
X147602438Y-73357142D02*
X147650057Y-73309523D01*
X147650057Y-73309523D02*
X147745295Y-73261904D01*
X147745295Y-73261904D02*
X147935771Y-73214285D01*
X147935771Y-73214285D02*
X148173866Y-73214285D01*
X148173866Y-73214285D02*
X148364342Y-73261904D01*
X148364342Y-73261904D02*
X148459580Y-73309523D01*
X148459580Y-73309523D02*
X148507200Y-73357142D01*
X148507200Y-73357142D02*
X148554819Y-73452380D01*
X148554819Y-73452380D02*
X148554819Y-73547618D01*
X148554819Y-73547618D02*
X148507200Y-73642856D01*
X148507200Y-73642856D02*
X148459580Y-73690475D01*
X148459580Y-73690475D02*
X148364342Y-73738094D01*
X148364342Y-73738094D02*
X148173866Y-73785713D01*
X148173866Y-73785713D02*
X147935771Y-73785713D01*
X147935771Y-73785713D02*
X147745295Y-73738094D01*
X147745295Y-73738094D02*
X147650057Y-73690475D01*
X147650057Y-73690475D02*
X147602438Y-73642856D01*
X147602438Y-73642856D02*
X147554819Y-73547618D01*
X147650057Y-72833332D02*
X147602438Y-72785713D01*
X147602438Y-72785713D02*
X147554819Y-72690475D01*
X147554819Y-72690475D02*
X147554819Y-72452380D01*
X147554819Y-72452380D02*
X147602438Y-72357142D01*
X147602438Y-72357142D02*
X147650057Y-72309523D01*
X147650057Y-72309523D02*
X147745295Y-72261904D01*
X147745295Y-72261904D02*
X147840533Y-72261904D01*
X147840533Y-72261904D02*
X147983390Y-72309523D01*
X147983390Y-72309523D02*
X148554819Y-72880951D01*
X148554819Y-72880951D02*
X148554819Y-72261904D01*
X137280952Y-72204819D02*
X136947619Y-71728628D01*
X136709524Y-72204819D02*
X136709524Y-71204819D01*
X136709524Y-71204819D02*
X137090476Y-71204819D01*
X137090476Y-71204819D02*
X137185714Y-71252438D01*
X137185714Y-71252438D02*
X137233333Y-71300057D01*
X137233333Y-71300057D02*
X137280952Y-71395295D01*
X137280952Y-71395295D02*
X137280952Y-71538152D01*
X137280952Y-71538152D02*
X137233333Y-71633390D01*
X137233333Y-71633390D02*
X137185714Y-71681009D01*
X137185714Y-71681009D02*
X137090476Y-71728628D01*
X137090476Y-71728628D02*
X136709524Y-71728628D01*
X137661905Y-71300057D02*
X137709524Y-71252438D01*
X137709524Y-71252438D02*
X137804762Y-71204819D01*
X137804762Y-71204819D02*
X138042857Y-71204819D01*
X138042857Y-71204819D02*
X138138095Y-71252438D01*
X138138095Y-71252438D02*
X138185714Y-71300057D01*
X138185714Y-71300057D02*
X138233333Y-71395295D01*
X138233333Y-71395295D02*
X138233333Y-71490533D01*
X138233333Y-71490533D02*
X138185714Y-71633390D01*
X138185714Y-71633390D02*
X137614286Y-72204819D01*
X137614286Y-72204819D02*
X138233333Y-72204819D01*
X138852381Y-71204819D02*
X138947619Y-71204819D01*
X138947619Y-71204819D02*
X139042857Y-71252438D01*
X139042857Y-71252438D02*
X139090476Y-71300057D01*
X139090476Y-71300057D02*
X139138095Y-71395295D01*
X139138095Y-71395295D02*
X139185714Y-71585771D01*
X139185714Y-71585771D02*
X139185714Y-71823866D01*
X139185714Y-71823866D02*
X139138095Y-72014342D01*
X139138095Y-72014342D02*
X139090476Y-72109580D01*
X139090476Y-72109580D02*
X139042857Y-72157200D01*
X139042857Y-72157200D02*
X138947619Y-72204819D01*
X138947619Y-72204819D02*
X138852381Y-72204819D01*
X138852381Y-72204819D02*
X138757143Y-72157200D01*
X138757143Y-72157200D02*
X138709524Y-72109580D01*
X138709524Y-72109580D02*
X138661905Y-72014342D01*
X138661905Y-72014342D02*
X138614286Y-71823866D01*
X138614286Y-71823866D02*
X138614286Y-71585771D01*
X138614286Y-71585771D02*
X138661905Y-71395295D01*
X138661905Y-71395295D02*
X138709524Y-71300057D01*
X138709524Y-71300057D02*
X138757143Y-71252438D01*
X138757143Y-71252438D02*
X138852381Y-71204819D01*
X140138095Y-72204819D02*
X139566667Y-72204819D01*
X139852381Y-72204819D02*
X139852381Y-71204819D01*
X139852381Y-71204819D02*
X139757143Y-71347676D01*
X139757143Y-71347676D02*
X139661905Y-71442914D01*
X139661905Y-71442914D02*
X139566667Y-71490533D01*
X139580952Y-88804819D02*
X139247619Y-88328628D01*
X139009524Y-88804819D02*
X139009524Y-87804819D01*
X139009524Y-87804819D02*
X139390476Y-87804819D01*
X139390476Y-87804819D02*
X139485714Y-87852438D01*
X139485714Y-87852438D02*
X139533333Y-87900057D01*
X139533333Y-87900057D02*
X139580952Y-87995295D01*
X139580952Y-87995295D02*
X139580952Y-88138152D01*
X139580952Y-88138152D02*
X139533333Y-88233390D01*
X139533333Y-88233390D02*
X139485714Y-88281009D01*
X139485714Y-88281009D02*
X139390476Y-88328628D01*
X139390476Y-88328628D02*
X139009524Y-88328628D01*
X140438095Y-88138152D02*
X140438095Y-88804819D01*
X140200000Y-87757200D02*
X139961905Y-88471485D01*
X139961905Y-88471485D02*
X140580952Y-88471485D01*
X141152381Y-87804819D02*
X141247619Y-87804819D01*
X141247619Y-87804819D02*
X141342857Y-87852438D01*
X141342857Y-87852438D02*
X141390476Y-87900057D01*
X141390476Y-87900057D02*
X141438095Y-87995295D01*
X141438095Y-87995295D02*
X141485714Y-88185771D01*
X141485714Y-88185771D02*
X141485714Y-88423866D01*
X141485714Y-88423866D02*
X141438095Y-88614342D01*
X141438095Y-88614342D02*
X141390476Y-88709580D01*
X141390476Y-88709580D02*
X141342857Y-88757200D01*
X141342857Y-88757200D02*
X141247619Y-88804819D01*
X141247619Y-88804819D02*
X141152381Y-88804819D01*
X141152381Y-88804819D02*
X141057143Y-88757200D01*
X141057143Y-88757200D02*
X141009524Y-88709580D01*
X141009524Y-88709580D02*
X140961905Y-88614342D01*
X140961905Y-88614342D02*
X140914286Y-88423866D01*
X140914286Y-88423866D02*
X140914286Y-88185771D01*
X140914286Y-88185771D02*
X140961905Y-87995295D01*
X140961905Y-87995295D02*
X141009524Y-87900057D01*
X141009524Y-87900057D02*
X141057143Y-87852438D01*
X141057143Y-87852438D02*
X141152381Y-87804819D01*
X142438095Y-88804819D02*
X141866667Y-88804819D01*
X142152381Y-88804819D02*
X142152381Y-87804819D01*
X142152381Y-87804819D02*
X142057143Y-87947676D01*
X142057143Y-87947676D02*
X141961905Y-88042914D01*
X141961905Y-88042914D02*
X141866667Y-88090533D01*
X146509580Y-75219047D02*
X146557200Y-75266666D01*
X146557200Y-75266666D02*
X146604819Y-75409523D01*
X146604819Y-75409523D02*
X146604819Y-75504761D01*
X146604819Y-75504761D02*
X146557200Y-75647618D01*
X146557200Y-75647618D02*
X146461961Y-75742856D01*
X146461961Y-75742856D02*
X146366723Y-75790475D01*
X146366723Y-75790475D02*
X146176247Y-75838094D01*
X146176247Y-75838094D02*
X146033390Y-75838094D01*
X146033390Y-75838094D02*
X145842914Y-75790475D01*
X145842914Y-75790475D02*
X145747676Y-75742856D01*
X145747676Y-75742856D02*
X145652438Y-75647618D01*
X145652438Y-75647618D02*
X145604819Y-75504761D01*
X145604819Y-75504761D02*
X145604819Y-75409523D01*
X145604819Y-75409523D02*
X145652438Y-75266666D01*
X145652438Y-75266666D02*
X145700057Y-75219047D01*
X145700057Y-74838094D02*
X145652438Y-74790475D01*
X145652438Y-74790475D02*
X145604819Y-74695237D01*
X145604819Y-74695237D02*
X145604819Y-74457142D01*
X145604819Y-74457142D02*
X145652438Y-74361904D01*
X145652438Y-74361904D02*
X145700057Y-74314285D01*
X145700057Y-74314285D02*
X145795295Y-74266666D01*
X145795295Y-74266666D02*
X145890533Y-74266666D01*
X145890533Y-74266666D02*
X146033390Y-74314285D01*
X146033390Y-74314285D02*
X146604819Y-74885713D01*
X146604819Y-74885713D02*
X146604819Y-74266666D01*
X145604819Y-73647618D02*
X145604819Y-73552380D01*
X145604819Y-73552380D02*
X145652438Y-73457142D01*
X145652438Y-73457142D02*
X145700057Y-73409523D01*
X145700057Y-73409523D02*
X145795295Y-73361904D01*
X145795295Y-73361904D02*
X145985771Y-73314285D01*
X145985771Y-73314285D02*
X146223866Y-73314285D01*
X146223866Y-73314285D02*
X146414342Y-73361904D01*
X146414342Y-73361904D02*
X146509580Y-73409523D01*
X146509580Y-73409523D02*
X146557200Y-73457142D01*
X146557200Y-73457142D02*
X146604819Y-73552380D01*
X146604819Y-73552380D02*
X146604819Y-73647618D01*
X146604819Y-73647618D02*
X146557200Y-73742856D01*
X146557200Y-73742856D02*
X146509580Y-73790475D01*
X146509580Y-73790475D02*
X146414342Y-73838094D01*
X146414342Y-73838094D02*
X146223866Y-73885713D01*
X146223866Y-73885713D02*
X145985771Y-73885713D01*
X145985771Y-73885713D02*
X145795295Y-73838094D01*
X145795295Y-73838094D02*
X145700057Y-73790475D01*
X145700057Y-73790475D02*
X145652438Y-73742856D01*
X145652438Y-73742856D02*
X145604819Y-73647618D01*
X146604819Y-72361904D02*
X146604819Y-72933332D01*
X146604819Y-72647618D02*
X145604819Y-72647618D01*
X145604819Y-72647618D02*
X145747676Y-72742856D01*
X145747676Y-72742856D02*
X145842914Y-72838094D01*
X145842914Y-72838094D02*
X145890533Y-72933332D01*
X144259580Y-89569047D02*
X144307200Y-89616666D01*
X144307200Y-89616666D02*
X144354819Y-89759523D01*
X144354819Y-89759523D02*
X144354819Y-89854761D01*
X144354819Y-89854761D02*
X144307200Y-89997618D01*
X144307200Y-89997618D02*
X144211961Y-90092856D01*
X144211961Y-90092856D02*
X144116723Y-90140475D01*
X144116723Y-90140475D02*
X143926247Y-90188094D01*
X143926247Y-90188094D02*
X143783390Y-90188094D01*
X143783390Y-90188094D02*
X143592914Y-90140475D01*
X143592914Y-90140475D02*
X143497676Y-90092856D01*
X143497676Y-90092856D02*
X143402438Y-89997618D01*
X143402438Y-89997618D02*
X143354819Y-89854761D01*
X143354819Y-89854761D02*
X143354819Y-89759523D01*
X143354819Y-89759523D02*
X143402438Y-89616666D01*
X143402438Y-89616666D02*
X143450057Y-89569047D01*
X143354819Y-89235713D02*
X143354819Y-88616666D01*
X143354819Y-88616666D02*
X143735771Y-88949999D01*
X143735771Y-88949999D02*
X143735771Y-88807142D01*
X143735771Y-88807142D02*
X143783390Y-88711904D01*
X143783390Y-88711904D02*
X143831009Y-88664285D01*
X143831009Y-88664285D02*
X143926247Y-88616666D01*
X143926247Y-88616666D02*
X144164342Y-88616666D01*
X144164342Y-88616666D02*
X144259580Y-88664285D01*
X144259580Y-88664285D02*
X144307200Y-88711904D01*
X144307200Y-88711904D02*
X144354819Y-88807142D01*
X144354819Y-88807142D02*
X144354819Y-89092856D01*
X144354819Y-89092856D02*
X144307200Y-89188094D01*
X144307200Y-89188094D02*
X144259580Y-89235713D01*
X143354819Y-87997618D02*
X143354819Y-87902380D01*
X143354819Y-87902380D02*
X143402438Y-87807142D01*
X143402438Y-87807142D02*
X143450057Y-87759523D01*
X143450057Y-87759523D02*
X143545295Y-87711904D01*
X143545295Y-87711904D02*
X143735771Y-87664285D01*
X143735771Y-87664285D02*
X143973866Y-87664285D01*
X143973866Y-87664285D02*
X144164342Y-87711904D01*
X144164342Y-87711904D02*
X144259580Y-87759523D01*
X144259580Y-87759523D02*
X144307200Y-87807142D01*
X144307200Y-87807142D02*
X144354819Y-87902380D01*
X144354819Y-87902380D02*
X144354819Y-87997618D01*
X144354819Y-87997618D02*
X144307200Y-88092856D01*
X144307200Y-88092856D02*
X144259580Y-88140475D01*
X144259580Y-88140475D02*
X144164342Y-88188094D01*
X144164342Y-88188094D02*
X143973866Y-88235713D01*
X143973866Y-88235713D02*
X143735771Y-88235713D01*
X143735771Y-88235713D02*
X143545295Y-88188094D01*
X143545295Y-88188094D02*
X143450057Y-88140475D01*
X143450057Y-88140475D02*
X143402438Y-88092856D01*
X143402438Y-88092856D02*
X143354819Y-87997618D01*
X144354819Y-86711904D02*
X144354819Y-87283332D01*
X144354819Y-86997618D02*
X143354819Y-86997618D01*
X143354819Y-86997618D02*
X143497676Y-87092856D01*
X143497676Y-87092856D02*
X143592914Y-87188094D01*
X143592914Y-87188094D02*
X143640533Y-87283332D01*
D11*
%TO.C,D101*%
X146012500Y-70777500D02*
X146012500Y-71537500D01*
X146012500Y-71537500D02*
X146722500Y-71537500D01*
%TO.C,R101*%
X144853641Y-71480000D02*
X144546359Y-71480000D01*
X144853641Y-70720000D02*
X144546359Y-70720000D01*
%TO.C,R202*%
X147120000Y-82753641D02*
X147120000Y-82446359D01*
X147880000Y-82753641D02*
X147880000Y-82446359D01*
%TO.C,C401*%
X136040000Y-74742164D02*
X136040000Y-74957836D01*
X136760000Y-74742164D02*
X136760000Y-74957836D01*
%TO.C,R402*%
X137653641Y-87870000D02*
X137346359Y-87870000D01*
X137653641Y-88630000D02*
X137346359Y-88630000D01*
%TO.C,U3*%
X143190000Y-82890000D02*
X143190000Y-83365000D01*
X143190000Y-86110000D02*
X143190000Y-85635000D01*
X143665000Y-82890000D02*
X143190000Y-82890000D01*
X143665000Y-86110000D02*
X143190000Y-86110000D01*
X145935000Y-82890000D02*
X146410000Y-82890000D01*
X145935000Y-86110000D02*
X146110000Y-86110000D01*
X146410000Y-82890000D02*
X146410000Y-83365000D01*
X146410000Y-85635000D02*
X146410000Y-85870000D01*
X146650000Y-86440000D02*
X146170000Y-86440000D01*
X146410000Y-86110000D01*
X146650000Y-86440000D01*
G36*
X146650000Y-86440000D02*
G01*
X146170000Y-86440000D01*
X146410000Y-86110000D01*
X146650000Y-86440000D01*
G37*
%TO.C,R403*%
X137320000Y-75546359D02*
X137320000Y-75853641D01*
X138080000Y-75546359D02*
X138080000Y-75853641D01*
%TO.C,R203*%
X139953641Y-74520000D02*
X139646359Y-74520000D01*
X139953641Y-75280000D02*
X139646359Y-75280000D01*
D12*
%TO.C,U2*%
X142629199Y-72174400D02*
X142629199Y-72884110D01*
X142629199Y-74715890D02*
X142629199Y-75425600D01*
X142629199Y-75425600D02*
X142831217Y-75425600D01*
X142831217Y-72174400D02*
X142629199Y-72174400D01*
X145068781Y-75425600D02*
X145270799Y-75425600D01*
X145270799Y-72174400D02*
X145068781Y-72174400D01*
X145270799Y-72884110D02*
X145270799Y-72174400D01*
X145270799Y-75425600D02*
X145270799Y-74715890D01*
D13*
G36*
X143890500Y-72149000D02*
G01*
X143509499Y-72149000D01*
X143509499Y-71895000D01*
X143890500Y-71895000D01*
X143890500Y-72149000D01*
G37*
D11*
%TO.C,C302*%
X145940000Y-87907836D02*
X145940000Y-87692164D01*
X146660000Y-87907836D02*
X146660000Y-87692164D01*
D12*
%TO.C,U4*%
X135830000Y-78221700D02*
X135830000Y-86578300D01*
X135830000Y-86578300D02*
X136551360Y-86578300D01*
X136551360Y-78221700D02*
X135830000Y-78221700D01*
X141458640Y-86578300D02*
X142180000Y-86578300D01*
X142180000Y-78221700D02*
X141458640Y-78221700D01*
X142180000Y-86578300D02*
X142180000Y-78221700D01*
X136106600Y-87100000D02*
G75*
G02*
X135903400Y-87100000I-101600J0D01*
G01*
X135903400Y-87100000D02*
G75*
G02*
X136106600Y-87100000I101600J0D01*
G01*
D11*
%TO.C,C202*%
X146990000Y-72592164D02*
X146990000Y-72807836D01*
X147710000Y-72592164D02*
X147710000Y-72807836D01*
%TO.C,R201*%
X138296359Y-72420000D02*
X138603641Y-72420000D01*
X138296359Y-73180000D02*
X138603641Y-73180000D01*
%TO.C,R401*%
X139246359Y-87870000D02*
X139553641Y-87870000D01*
X139246359Y-88630000D02*
X139553641Y-88630000D01*
%TO.C,C201*%
X145790000Y-72642164D02*
X145790000Y-72857836D01*
X146510000Y-72642164D02*
X146510000Y-72857836D01*
%TO.C,C301*%
X144690000Y-87907836D02*
X144690000Y-87692164D01*
X145410000Y-87907836D02*
X145410000Y-87692164D01*
%TD*%
M02*
